<?xml version="1.0" standalone="no"?>
<!DOCTYPE svg PUBLIC "-//W3C//DTD SVG 20010904//EN"
 "http://www.w3.org/TR/2001/REC-SVG-20010904/DTD/svg10.dtd">
<svg version="1.0" xmlns="http://www.w3.org/2000/svg"
 width="351.000000pt" height="144.000000pt" viewBox="0 0 351.000000 144.000000"
 preserveAspectRatio="xMidYMid meet">

<g transform="translate(0.000000,144.000000) scale(0.100000,-0.100000)"
fill="#000000" stroke="none">
<path d="M1525 1301 l-220 -137 -3 -136 -3 -136 56 -32 c30 -17 55 -35 55 -38
0 -4 -24 -21 -53 -37 l-52 -31 -3 -67 c-2 -37 1 -67 5 -67 5 0 109 -58 232
-129 l224 -130 101 55 c56 30 158 85 228 122 l128 67 0 143 c0 78 -2 142 -4
142 -2 0 -107 -59 -232 -131 l-227 -132 -56 28 c-50 24 -54 28 -38 40 10 7
139 82 287 166 l269 154 1 80 0 80 -50 28 -51 28 -162 -94 c-89 -52 -196 -115
-238 -140 l-75 -44 -63 32 -64 32 236 137 c130 76 235 142 232 146 -4 6 -150
90 -235 135 -3 2 -104 -58 -225 -134z"/>
<path d="M120 289 c-55 -17 -98 -55 -111 -99 -47 -156 180 -253 330 -142 l34
25 -27 14 c-25 13 -32 12 -79 -11 -72 -37 -123 -32 -174 16 -49 46 -16 128 57
148 45 12 79 6 131 -22 29 -16 43 -18 65 -11 l27 9 -24 23 c-13 12 -37 30 -53
38 -37 19 -130 26 -176 12z"/>
<path d="M1300 250 c-50 -9 -79 -27 -86 -55 -14 -58 20 -83 127 -92 37 -3 73
-9 79 -13 49 -30 -106 -43 -162 -14 -30 15 -32 15 -45 -2 -19 -26 -17 -29 29
-50 62 -28 186 -27 225 2 35 26 42 73 15 97 -11 10 -51 21 -103 28 -90 13
-114 23 -89 40 15 10 118 6 157 -6 16 -5 24 -2 33 14 10 19 7 23 -22 35 -41
17 -111 24 -158 16z"/>
<path d="M494 236 c-45 -20 -74 -62 -74 -108 0 -105 168 -163 278 -96 40 25
52 46 52 96 0 45 -26 84 -70 107 -36 19 -144 19 -186 1z m149 -47 c62 -28 52
-104 -17 -127 -47 -15 -110 -1 -126 28 -40 75 54 140 143 99z"/>
<path d="M830 130 l0 -120 35 0 35 0 0 78 0 77 76 -77 c69 -71 80 -78 115 -78
l39 0 0 120 0 120 -35 0 -35 0 0 -79 0 -79 -77 79 c-69 72 -80 79 -115 79
l-38 0 0 -120z"/>
<path d="M1570 159 c0 -86 1 -92 28 -119 51 -51 183 -53 242 -4 29 25 30 28
30 120 l0 94 -35 0 -35 0 0 -84 c0 -99 -9 -111 -80 -111 -71 0 -80 12 -80 111
l0 84 -35 0 -35 0 0 -91z"/>
<path d="M1950 130 l0 -120 125 0 125 0 0 25 c0 25 -1 25 -90 25 l-90 0 0 95
0 95 -35 0 -35 0 0 -120z"/>
<path d="M2172 223 c3 -27 6 -28 61 -31 l57 -3 0 -89 0 -90 35 0 35 0 0 93 0
92 55 -3 55 -4 0 31 0 31 -151 0 -150 0 3 -27z"/>
<path d="M2844 235 c-13 -33 4 -45 61 -45 l55 0 0 -90 0 -90 35 0 35 0 0 93 0
92 55 -3 55 -4 0 31 0 31 -145 0 c-120 0 -147 -3 -151 -15z"/>
<path d="M3200 130 l0 -120 35 0 c35 0 35 0 35 45 l0 45 85 0 85 0 0 -45 c0
-45 0 -45 35 -45 l35 0 0 120 0 120 -35 0 -35 0 0 -50 0 -50 -85 0 -85 0 0 50
0 50 -35 0 -35 0 0 -120z"/>
<path d="M2520 215 l0 -25 135 0 135 0 0 25 0 25 -135 0 -135 0 0 -25z"/>
<path d="M2520 125 l0 -25 135 0 135 0 0 25 0 25 -135 0 -135 0 0 -25z"/>
<path d="M2527 53 c-4 -3 -7 -15 -7 -25 0 -17 11 -18 135 -18 l135 0 0 25 0
25 -128 0 c-71 0 -132 -3 -135 -7z"/>
</g>
</svg>
